PathFileType  4	(X/Y/Z) C:\Users\antoi\Documents\MyRepositories\mobilecap\ResultsAnalysis
DataRate	CameraRate	NumFrames	NumMarkers	Units	OrigDataRate	OrigDataStartFrame	OrigNumFrames
100.0	100.0	4	51	mm	100.0	842	1346
Frame#	Time	r_knee			r_shank_antsup			r_ankle			r_calc			r_5meta			r_toe			L_knee			L_shank_antsup			L_ankle			L_calc			L_5meta			L_toe			r_sh2			r_sh3			r_sh4			L_sh2			L_sh3			r_thigh1			r_thigh2			r_thigh3			r_thigh4			r_thigh5			L_thigh1			L_thigh2			L_thigh3			L_thigh4			r.ASIS			r.PSIS			L.ASIS			L.PSIS			C7			R_Shoulder			L_Shoulder			R_Sternum			L_Sternum			R_humerus			R_elbow_med			R_elbow_lat			R_forearm			R_wrist_radius			R_wrist_ulna			L_humerus			L_elbow_med			L_elbow_lat			L_forearm			L_wrist_radius			L_wrist_ulna			R_HJC			L_HJC			R_HJC_reg			L_HJC_reg			
		X1	Y1	Z1	X2	Y2	Z2	X3	Y3	Z3	X4	Y4	Z4	X5	Y5	Z5	X6	Y6	Z6	X7	Y7	Z7	X8	Y8	Z8	X9	Y9	Z9	X10	Y10	Z10	X11	Y11	Z11	X12	Y12	Z12	X13	Y13	Z13	X14	Y14	Z14	X15	Y15	Z15	X16	Y16	Z16	X17	Y17	Z17	X18	Y18	Z18	X19	Y19	Z19	X20	Y20	Z20	X21	Y21	Z21	X22	Y22	Z22	X23	Y23	Z23	X24	Y24	Z24	X25	Y25	Z25	X26	Y26	Z26	X27	Y27	Z27	X28	Y28	Z28	X29	Y29	Z29	X30	Y30	Z30	X31	Y31	Z31	X32	Y32	Z32	X33	Y33	Z33	X34	Y34	Z34	X35	Y35	Z35	X36	Y36	Z36	X37	Y37	Z37	X38	Y38	Z38	X39	Y39	Z39	X40	Y40	Z40	X41	Y41	Z41	X42	Y42	Z42	X43	Y43	Z43	X44	Y44	Z44	X45	Y45	Z45	X46	Y46	Z46	X47	Y47	Z47	X48	Y48	Z48	X49	Y49	Z49	X50	Y50	Z50	X51	Y51	Z51	

842	8.41000000	-174.35562	494.95040	-404.94938	-145.71963	395.61733	-400.79544	-277.03061	93.19634	-388.15481	-336.84598	57.03542	-439.26182	-162.35846	43.40308	-340.31931	-126.56538	73.77234	-391.94825	-182.32729	501.09495	-802.97699	-145.00238	410.06078	-804.82205	-265.11821	96.99328	-821.74361	-333.78140	49.91719	-768.59403	-164.87115	40.42478	-869.72843	-114.48493	68.80058	-819.89475	-173.78284	285.33279	-394.37518	-210.45266	412.40202	-365.66839	-244.33425	303.92224	-355.63724	-225.00567	442.56394	-834.13052	-254.61376	325.34852	-849.36377	-181.30265	778.83177	-409.08442	-151.01176	671.62338	-412.56554	-195.21671	632.97653	-379.69934	-288.35542	743.90422	-394.35331	-248.78814	634.83367	-398.11555	-164.53118	756.51560	-785.93314	-124.13106	621.99806	-783.87534	-266.90640	727.65996	-815.52014	-228.40381	599.49145	-806.59763	-176.96903	958.34380	-473.52535	-381.32107	987.15357	-552.64734	-181.24036	960.62431	-726.82992	-378.38811	988.52825	-645.99912	-301.74581	1450.12509	-597.06544	-215.92351	1419.92743	-435.12936	-213.98453	1416.20366	-747.66196	-177.76395	1375.50725	-572.79761	-179.46965	1376.67052	-617.75229	-138.72770	1318.28472	-379.46028	-130.47190	1098.79896	-379.00036	-117.13919	1124.28758	-318.89893	-30.21433	1105.52342	-305.30497	106.12690	1006.61115	-338.24285	82.24874	986.28181	-299.98546	-141.10169	1305.10429	-808.20992	-114.19800	1097.06345	-779.79152	-101.28526	1121.23341	-854.32207	-26.72741	1103.07114	-864.88512	112.23974	991.29951	-847.73571	80.48420	971.34945	-884.21172	-257.25310	869.54003	-499.06675	-257.77475	872.26235	-688.60896	-251.49098	879.80909	-512.65945	-246.23979	882.26732	-679.77055	
843	8.42000000	-173.89154	494.27296	-403.97724	-144.86528	395.07511	-400.33036	-277.20203	93.00948	-388.10623	-336.98093	56.93254	-439.24744	-162.49246	43.94448	-340.03652	-126.83086	74.37552	-391.93481	-180.58281	500.63455	-804.59901	-143.45257	409.31932	-805.82534	-265.26161	96.90388	-821.77936	-333.79963	49.76235	-768.61275	-165.03957	40.92161	-870.14697	-114.66972	69.37875	-820.00645	-173.30085	284.71435	-394.02511	-209.53096	411.97674	-364.96046	-244.00564	303.68099	-354.87859	-223.19461	442.02982	-835.79030	-253.18735	324.93745	-850.68181	-185.20540	777.94002	-408.50325	-153.27023	671.14463	-412.24285	-196.78382	632.05161	-378.84239	-291.71860	741.47501	-393.39775	-250.43707	632.86025	-397.27820	-167.67080	755.88732	-786.02995	-124.91102	622.32338	-784.37695	-269.43890	725.28052	-816.28432	-228.52328	597.96495	-808.21765	-181.47001	955.22843	-473.57689	-385.32175	987.35003	-551.95120	-186.04441	956.94776	-726.97517	-382.71030	988.74876	-645.76762	-299.40893	1448.45249	-597.11809	-213.61976	1417.96311	-435.59999	-211.71948	1413.99931	-747.13877	-176.21393	1372.74947	-572.81146	-177.79544	1374.10154	-617.73604	-135.44979	1318.10495	-379.85220	-123.05074	1098.81742	-378.53722	-109.90137	1124.42694	-318.41368	-21.71874	1109.16748	-306.16514	118.19363	1016.43239	-341.84531	95.91871	994.79069	-303.45449	-137.49309	1304.81558	-807.45627	-107.06842	1097.47547	-779.65323	-93.84215	1121.88708	-854.24679	-18.26513	1106.46517	-863.35125	125.19870	1001.08269	-843.24509	95.10524	979.68594	-880.35229	-263.28445	867.76734	-498.72345	-264.21584	870.11893	-688.26908	-257.10160	877.50804	-512.50282	-252.44565	880.00073	-679.69304	
844	8.43000000	-173.45191	493.09582	-403.02108	-143.97909	394.45172	-399.68697	-277.36812	92.81506	-388.07000	-337.10206	56.79449	-439.20395	-162.68060	44.71649	-339.57978	-127.11196	75.04732	-391.79013	-179.33531	500.13049	-805.99402	-142.13527	408.55407	-806.97736	-265.53330	96.81242	-821.88344	-334.13333	49.82761	-768.71644	-165.20382	40.95255	-869.88268	-114.94173	70.03693	-820.19400	-172.74897	284.12347	-393.74072	-208.45045	411.54714	-364.11829	-243.52826	303.07703	-354.36153	-221.66462	441.39705	-837.34508	-252.06939	324.56012	-851.90920	-189.20312	777.01279	-407.73214	-155.52736	670.57365	-411.81113	-198.42497	630.88534	-378.07453	-295.11783	738.94800	-392.41411	-252.05596	630.81033	-396.33460	-171.25425	755.38607	-786.11891	-125.68235	622.77566	-784.96792	-272.05919	723.03962	-817.28546	-228.65596	596.56635	-809.96578	-185.91440	951.66905	-473.88998	-389.19774	987.33681	-551.35957	-190.70137	952.82005	-727.00531	-386.66506	988.35375	-645.48075	-296.97598	1446.43297	-597.15623	-211.17415	1415.55378	-436.08279	-209.31641	1411.38980	-746.55313	-174.67429	1369.51579	-572.77962	-176.08949	1371.15960	-617.82673	-132.10108	1317.30078	-380.31680	-115.74467	1098.24490	-377.71658	-102.52940	1124.18595	-317.99244	-13.39402	1112.18967	-307.51289	129.79739	1026.02394	-345.61615	109.23395	1003.30052	-307.05707	-133.76751	1304.07006	-806.67176	-99.99116	1097.34709	-779.76771	-86.36611	1122.16734	-854.15256	-9.66151	1109.67305	-862.00769	137.75016	1010.84505	-838.81865	109.37298	988.02335	-876.35526	-269.18605	865.63393	-498.37769	-270.51529	867.53688	-687.92585	-262.98713	875.45849	-512.41188	-258.49489	877.26514	-679.42852	
845	8.44000000	-172.73335	492.43715	-402.15817	-143.09245	393.72613	-398.96815	-277.55871	92.64774	-388.05116	-337.20495	56.64588	-439.12189	-162.78957	44.96439	-339.68263	-127.38602	75.68803	-391.56421	-178.48070	499.56674	-807.37005	-141.07227	407.73641	-808.17982	-265.86417	96.74674	-822.12202	-334.66324	50.05232	-768.87091	-165.35319	40.80731	-869.33690	-115.28007	70.77875	-820.48829	-172.28888	283.67846	-393.41161	-207.27581	411.00479	-363.15678	-242.51465	302.60262	-354.12508	-220.35991	440.77630	-838.83359	-251.32693	324.17297	-853.00967	-193.28874	776.00405	-406.94126	-157.84883	669.97542	-411.26717	-200.01759	629.66567	-377.32410	-298.62417	736.26401	-391.37257	-253.73537	628.84675	-395.07410	-174.97902	754.95505	-786.38516	-126.64751	623.28549	-785.73995	-274.80766	720.84114	-818.44461	-228.90795	595.15988	-811.63447	-190.34845	947.80531	-474.21545	-393.08717	987.02691	-550.95008	-195.37840	948.31135	-726.94541	-390.42445	987.50592	-645.12010	-294.45807	1444.08683	-597.20530	-208.59493	1412.68954	-436.56788	-206.72125	1408.31730	-745.95531	-173.07330	1365.91030	-572.74671	-174.45473	1367.68754	-617.97898	-128.68924	1315.97104	-380.93349	-108.39907	1097.23969	-376.98637	-95.02528	1123.53466	-317.73406	-5.25175	1114.57684	-309.17723	140.90877	1035.42806	-349.55304	122.09051	1011.81804	-310.65194	-129.87452	1302.83601	-805.68277	-92.94289	1096.56198	-780.09511	-78.86370	1122.08040	-853.98876	-0.93378	1112.59532	-860.84379	149.79393	1020.48086	-834.32411	123.21443	996.22905	-872.06295	-275.06428	863.21972	-497.98218	-276.74893	864.59323	-687.53205	-269.08254	873.29673	-512.36631	-264.36954	874.14506	-679.13330	
